# xmcd
#
# Track frame offsets: 
#        150
#        28632
#        56799
#        140733
#        186638
#
# Disc length: 3517 seconds
#
# Revision: 0
# Processed by: cddbd v1.5.1PL0 Copyright (c) Steve Scherf et al.
# Submitted via: ExactAudioCopy v0.95a5
#
DISCID=4d0dbb05
DTITLE=Rufus Thomas - Rufus Live!
DYEAR=1998
DGENRE=R&B
TTITLE0=Walking The Dog
TTITLE1=Big Fine Hunk Of Woman
TTITLE2=Today I Started Loving You Again
TTITLE3=Somebody's Got To Go
TTITLE4=Do The Funky Chicken
EXTD=
EXTT0=
EXTT1=
EXTT2=
EXTT3=
EXTT4=
PLAYORDER=
